<?xml version="1.0" encoding="UTF-8" standalone="no"?>
<svg
   xmlns:dc="http://purl.org/dc/elements/1.1/"
   xmlns:cc="http://creativecommons.org/ns#"
   xmlns:rdf="http://www.w3.org/1999/02/22-rdf-syntax-ns#"
   xmlns:svg="http://www.w3.org/2000/svg"
   xmlns="http://www.w3.org/2000/svg"
   xmlns:sodipodi="http://sodipodi.sourceforge.net/DTD/sodipodi-0.dtd"
   xmlns:inkscape="http://www.inkscape.org/namespaces/inkscape"
   version="1.1"
   id="svg2"
   xml:space="preserve"
   width="4480"
   height="840"
   viewBox="0 0 4480 840"
   sodipodi:docname="Logomarca (svg).ai"><metadata
     id="metadata8"><rdf:RDF><cc:Work
         rdf:about=""><dc:format>image/svg+xml</dc:format><dc:type
           rdf:resource="http://purl.org/dc/dcmitype/StillImage" /></cc:Work></rdf:RDF></metadata><defs
     id="defs6"><clipPath
       clipPathUnits="userSpaceOnUse"
       id="clipPath18"><path
         d="M 0,630 H 3360 V 0 H 0 Z"
         id="path16" /></clipPath></defs><sodipodi:namedview
     pagecolor="#ffffff"
     bordercolor="#666666"
     borderopacity="1"
     objecttolerance="10"
     gridtolerance="10"
     guidetolerance="10"
     inkscape:pageopacity="0"
     inkscape:pageshadow="2"
     inkscape:window-width="640"
     inkscape:window-height="480"
     id="namedview4" /><g
     id="g10"
     inkscape:groupmode="layer"
     inkscape:label="Logomarca (svg)"
     transform="matrix(1.3333333,0,0,-1.3333333,0,840)"><g
       id="g12"><g
         id="g14"
         clip-path="url(#clipPath18)"><g
           id="g20"
           transform="translate(2437.3367,93.5664)"><path
             d="m 0,0 c -67.621,0 -122.438,54.817 -122.438,122.438 0,67.62 54.817,122.438 122.438,122.438 67.621,0 122.438,-54.818 122.438,-122.438 C 122.438,54.817 67.621,0 0,0 M 122.438,320.542 V 278.114 C 88.732,304.66 46.234,320.542 0,320.542 c -109.41,0 -198.104,-88.694 -198.104,-198.104 0,-109.41 88.694,-198.105 198.104,-198.105 46.234,0 88.732,15.882 122.438,42.429 v -42.429 h 75.666 v 396.209 z"
             style="fill:#363636;fill-opacity:1;fill-rule:nonzero;stroke:none"
             id="path22" /></g><g
           id="g24"
           transform="translate(3095.6016,93.5664)"><path
             d="m 0,0 c -67.621,0 -122.438,54.817 -122.438,122.438 0,67.62 54.817,122.438 122.438,122.438 67.62,0 122.438,-54.818 122.438,-122.438 C 122.438,54.817 67.62,0 0,0 M 122.438,320.542 V 278.114 C 88.732,304.66 46.234,320.542 0,320.542 c -109.41,0 -198.104,-88.694 -198.104,-198.104 0,-109.41 88.694,-198.105 198.104,-198.105 46.234,0 88.732,15.882 122.438,42.429 v -42.429 h 75.666 v 396.209 z"
             style="fill:#363636;fill-opacity:1;fill-rule:nonzero;stroke:none"
             id="path26" /></g><g
           id="g28"
           transform="translate(2743.0835,216.0045)"><path
             d="m 0,0 v 122.438 h 122.438 v 75.666 H 0 V 396.209 H -75.667 V 198.104 122.438 0 0 c 0,-109.41 88.695,-198.105 198.105,-198.105 v 75.667 C 54.817,-122.438 0,-67.621 0,0 Z"
             style="fill:#363636;fill-opacity:1;fill-rule:nonzero;stroke:none"
             id="path30" /></g><g
           id="g32"
           transform="translate(1152.7441,93.5664)"><path
             d="m 0,0 c -67.62,0 -122.438,54.817 -122.438,122.438 0,67.62 54.818,122.438 122.438,122.438 67.621,0 122.438,-54.818 122.438,-122.438 C 122.438,54.817 67.621,0 0,0 M 122.438,320.542 V 278.114 C 88.732,304.66 46.234,320.542 0,320.542 c -109.41,0 -198.104,-88.694 -198.104,-198.104 0,-109.41 88.694,-198.105 198.104,-198.105 46.234,0 88.732,15.882 122.438,42.429 v -42.429 h 75.666 v 396.209 z"
             style="fill:#363636;fill-opacity:1;fill-rule:nonzero;stroke:none"
             id="path34" /></g><g
           id="g36"
           transform="translate(800.2262,216.0045)"><path
             d="m 0,0 v 122.438 h 122.438 v 75.666 H 0 V 396.209 H -75.667 V 198.104 122.438 0 0 c 0,-109.41 88.695,-198.105 198.105,-198.105 v 75.667 C 54.817,-122.438 0,-67.621 0,0 Z"
             style="fill:#363636;fill-opacity:1;fill-rule:nonzero;stroke:none"
             id="path38" /></g><g
           id="g40"
           transform="translate(66.2941,216.0047)"><path
             d="M 0,0 V -198.105 H 75.666 V -155.54 0 c 0,67.62 54.819,122.437 122.439,122.437 v 75.668 C 88.694,198.105 0,109.409 0,0"
             style="fill:#363636;fill-opacity:1;fill-rule:nonzero;stroke:none"
             id="path42" /></g><g
           id="g44"
           transform="translate(494.4793,93.4753)"><path
             d="m 0,0 c -67.641,0 -122.474,54.835 -122.474,122.474 0,67.642 54.833,122.476 122.474,122.476 67.641,0 122.474,-54.834 122.474,-122.476 C 122.474,54.835 67.641,0 0,0 m 0,320.639 c -109.444,0 -198.164,-88.721 -198.164,-198.165 0,-109.442 88.72,-198.163 198.164,-198.163 109.444,0 198.164,88.721 198.164,198.163 0,109.444 -88.72,198.165 -198.164,198.165"
             style="fill:#363636;fill-opacity:1;fill-rule:nonzero;stroke:none"
             id="path46" /></g><g
           id="g48"
           transform="translate(2200.7876,18.2665)"><path
             d="M 0,0 C 1.761,-0.473 3.707,0.122 5.007,1.317 V 1.318 C 6.306,2.513 6.877,4.322 6.148,6.5 4.988,9.969 -24.526,92.914 -48.361,159.864 H -153.782 V 54.679 C -83.475,29.583 -2.854,0.764 0,0"
             style="fill:#f18638;fill-opacity:1;fill-rule:nonzero;stroke:none"
             id="path50" /></g><g
           id="g52"
           transform="translate(1817.9143,18.2202)"><path
             d="M 0,0 C 3.469,1.16 86.419,30.676 153.368,54.511 V 159.935 H 48.181 C 23.084,89.624 -5.735,9.003 -6.499,6.149 -6.972,4.387 -6.377,2.442 -5.181,1.142 H -5.182 C -3.987,-0.158 -2.178,-0.729 0,0"
             style="fill:#e7373b;fill-opacity:1;fill-rule:nonzero;stroke:none"
             id="path54" /></g><g
           id="g56"
           transform="translate(1817.5187,413.7418)"><path
             d="m 0,0 c -1.762,0.471 -3.709,-0.123 -5.009,-1.318 h 0.001 C -6.309,-2.514 -6.88,-4.323 -6.15,-6.502 -4.99,-9.973 24.537,-92.954 48.38,-159.928 H 153.845 V -54.702 C 83.507,-29.595 2.856,-0.765 0,0"
             style="fill:#2aaee4;fill-opacity:1;fill-rule:nonzero;stroke:none"
             id="path58" /></g><g
           id="g60"
           transform="translate(2205.5725,412.6456)"><path
             d="M 0,0 C -1.196,1.299 -3.004,1.871 -5.184,1.142 -8.654,-0.019 -91.633,-29.544 -158.61,-53.389 V -158.854 H -53.384 C -28.277,-88.518 0.553,-7.865 1.318,-5.009 1.79,-3.246 1.196,-1.301 0,0"
             style="fill:#14a85a;fill-opacity:1;fill-rule:nonzero;stroke:none"
             id="path62" /></g><g
           id="g64"
           transform="translate(1580.9677,338.4424)"><path
             d="M 0,0 C 54.415,0 100.481,-35.526 116.421,-84.628 H -116.42 C -100.481,-35.526 -54.415,0 0,0 M 56.888,-230.849 C 39.894,-239.798 20.546,-244.876 0,-244.876 c -54.4,0 -100.454,35.508 -116.405,84.589 h 182.691 50.12 77.99 c 2.374,12.261 3.709,24.895 3.709,37.849 0,109.41 -88.695,198.105 -198.105,198.105 -109.41,0 -198.104,-88.695 -198.104,-198.105 0,-109.41 88.694,-198.104 198.104,-198.104 41.538,0 80.052,12.834 111.898,34.682 z"
             style="fill:#363636;fill-opacity:1;fill-rule:nonzero;stroke:none"
             id="path66" /></g></g></g></g></svg>
