<svg id="svg" version="1.1" xmlns="http://www.w3.org/2000/svg" xmlns:xlink="http://www.w3.org/1999/xlink" width="400" height="400" viewBox="0, 0, 400,400"><g id="svgg"><path id="path1" d="M392.246 0.594 C 390.469 1.185,388.544 1.867,354.092 14.111 C 322.438 25.360,238.943 55.080,238.462 55.268 C 238.053 55.429,238.031 58.202,238.031 108.703 L 238.031 161.969 291.289 161.969 L 344.548 161.969 360.697 116.738 C 401.969 1.143,400.183 6.291,399.735 4.205 C 398.973 0.650,396.161 -0.706,392.246 0.594 " stroke="none" fill="#24ab5c" fill-rule="evenodd"></path><path id="path2" d="M55.518 238.462 C 54.439 241.264,7.511 372.985,3.422 384.689 C -0.395 395.615,-0.430 395.896,1.742 398.363 C 3.836 400.742,4.719 400.639,15.811 396.707 C 24.561 393.606,82.699 372.936,134.706 354.436 L 161.965 344.738 161.967 291.385 L 161.969 238.031 108.826 238.031 C 58.441 238.031,55.675 238.053,55.518 238.462 " stroke="none" fill="#eb343c" fill-rule="evenodd"></path><path id="path3" d="M238.277 291.282 L 238.277 344.533 284.000 360.855 C 394.390 400.262,393.177 399.838,395.195 399.710 C 398.060 399.527,399.807 397.843,399.947 395.131 C 400.044 393.253,403.222 402.372,366.772 299.938 C 357.137 272.862,348.240 247.855,347.002 244.369 L 344.749 238.031 291.513 238.031 L 238.277 238.031 238.277 291.282 " stroke="none" fill="#f4843c" fill-rule="evenodd"></path><path id="path0" d="M3.461 0.554 C 2.171 0.984,0.592 2.639,0.250 3.916 C -0.236 5.732,-1.399 2.183,12.557 41.477 C 18.985 59.576,53.597 156.848,55.190 161.292 L 55.433 161.969 108.701 161.969 L 161.969 161.969 161.964 108.738 L 161.958 55.508 111.933 37.672 C 56.711 17.983,25.328 6.823,14.277 2.945 C 6.705 0.287,5.232 -0.038,3.461 0.554 " stroke="none" fill="#1cace4" fill-rule="evenodd"></path><path id="path1" d="M392.246 0.594 C 390.469 1.185,388.544 1.867,354.092 14.111 C 322.438 25.360,238.943 55.080,238.462 55.268 C 238.053 55.429,238.031 58.202,238.031 108.703 L 238.031 161.969 291.289 161.969 L 344.548 161.969 360.697 116.738 C 401.969 1.143,400.183 6.291,399.735 4.205 C 398.973 0.650,396.161 -0.706,392.246 0.594 " stroke="none" fill="#24ab5c" fill-rule="evenodd"></path><path id="path2" d="M55.518 238.462 C 54.439 241.264,7.511 372.985,3.422 384.689 C -0.395 395.615,-0.430 395.896,1.742 398.363 C 3.836 400.742,4.719 400.639,15.811 396.707 C 24.561 393.606,82.699 372.936,134.706 354.436 L 161.965 344.738 161.967 291.385 L 161.969 238.031 108.826 238.031 C 58.441 238.031,55.675 238.053,55.518 238.462 " stroke="none" fill="#eb343c" fill-rule="evenodd"></path><path id="path3" d="M238.277 291.282 L 238.277 344.533 284.000 360.855 C 394.390 400.262,393.177 399.838,395.195 399.710 C 398.060 399.527,399.807 397.843,399.947 395.131 C 400.044 393.253,403.222 402.372,366.772 299.938 C 357.137 272.862,348.240 247.855,347.002 244.369 L 344.749 238.031 291.513 238.031 L 238.277 238.031 238.277 291.282 " stroke="none" fill="#f4843c" fill-rule="evenodd"></path></g></svg>